# xmcd CD database file generated by OrangeCD 6.4
#
# Track frame offsets:
#	150
#	12050
#	24630
#	41812
#	56335
#	83767
#	105162
#	120405
#	131377
#	143402
#	153047
#	170462
#	181562
#	197607
#	212182
#	230015
#	241632
#	255652
#	273622
#	289077
#	300400
#	315337
#
# Disc length: 4377 seconds
#
# Revision: 4
# Processed by: cddbd v1.5.2PL0 Copyright (c) Steve Scherf et al.
# Submitted via: OrangeCD 6.4
#
DISCID=0d111716
DTITLE=Various Artist - Shake 'Em On Down - The Real Country Blues
DYEAR=1994
DGENRE=Blues
TTITLE0=Shake 'Em On Down - Fred McDowell
TTITLE1=Sloppy Drunk Blues - Big Joe Williams
TTITLE2=Alabama Blues - Bukka White
TTITLE3=Need More Blues - Sleepy John Estes
TTITLE4=Judge Boushay Blues - Furry Lewis
TTITLE5=Pardon Denied Again - Robert Pete Williams
TTITLE6=Rabbit Blues - Smoky Babe
TTITLE7=Take Me Out Of The Bottom - Big Joe Williams
TTITLE8=Fred's Worried Life Blues - Fred McDowell
TTITLE9=Poor Black Mattie - R. L. Burnside
TTITLE10=Come Home To Me, Baby - Joe Callicott
TTITLE11=Smokestack Lightning - Clarence Edwards
TTITLE12=Write Me A Few Lines - Fred McDowell
TTITLE13=Mississippi River - Smoky Babe
TTITLE14=Just Tippin' In - Robert Pete Williams
TTITLE15=She Left Me A Mule To Ride - Big Joe Williams
TTITLE16=Canned Heat - Houston Stackhouse
TTITLE17=Three O'clock In The  Morning - Johnny  Woods
TTITLE18='Bout A Spoonful - Nathan Beauregard
TTITLE19=You Call Yourself A Cadillac - Robert Nighthawk with Carey Mason
TTITLE20=Keep Your Nose Out Of My Business - Johnny Young and Otis Spann
TTITLE21=Oh, Baby - Napoleon Strickland
EXTD=
EXTT0=
EXTT1=
EXTT2=
EXTT3=
EXTT4=
EXTT5=
EXTT6=
EXTT7=
EXTT8=
EXTT9=
EXTT10=
EXTT11=
EXTT12=
EXTT13=
EXTT14=
EXTT15=
EXTT16=
EXTT17=
EXTT18=
EXTT19=
EXTT20=
EXTT21=
PLAYORDER=
